<?xml version="1.0" standalone="no"?><!DOCTYPE svg PUBLIC "-//W3C//DTD SVG 1.1//EN" "http://www.w3.org/Graphics/SVG/1.1/DTD/svg11.dtd"><svg t="1649244542929" class="icon" viewBox="0 0 1024 1024" version="1.1" xmlns="http://www.w3.org/2000/svg" p-id="6180" xmlns:xlink="http://www.w3.org/1999/xlink" width="128" height="128"><defs><style type="text/css">@font-face { font-family: feedback-iconfont; src: url("//at.alicdn.com/t/font_1031158_u69w8yhxdu.woff2?t=1630033759944") format("woff2"), url("//at.alicdn.com/t/font_1031158_u69w8yhxdu.woff?t=1630033759944") format("woff"), url("//at.alicdn.com/t/font_1031158_u69w8yhxdu.ttf?t=1630033759944") format("truetype"); }
</style></defs><path d="M785.4 931.1h-0.1l-547.5-0.7c-61.2-0.1-111-49.4-110.9-110l0.7-484.9c0.1-60.5 49.9-109.7 111.1-109.7h61.2c18.2 0 32.9 14.7 32.9 32.8 0 18.2-14.7 32.9-32.8 32.9h-61.1-0.1c-25 0-45.4 19.8-45.4 44.1l-0.7 484.8c0 24.3 20.3 44.2 45.3 44.2l547.4 0.7c25 0 45.3-19.8 45.3-44.1l0.7-484.9c0-11.6-4.7-22.6-13.1-31-8.6-8.5-20-13.2-32.2-13.2l-77.6-0.8c-18.1-0.2-32.7-15-32.5-33.2s15.2-33.6 33.2-32.5l77.3 0.8c29.2 0 57 11.5 77.9 32.1 21.1 20.8 32.7 48.5 32.7 77.8l-0.7 484.9c0 60.8-49.9 109.9-111 109.9z" fill="#666666" p-id="6181"></path><path d="M688.9 387.6l-353.9-0.5c-8.7 0-17.1-3.5-23.2-9.7-6.2-6.2-9.6-14.5-9.6-23.2l0.2-159.8c0-18.1 14.7-32.8 32.8-32.8l53.1 0.1c2.4-29.4 15-56.7 36.1-77.7 23.4-23.4 54.6-36.2 87.7-36.2h0.2c33.2 0 64.3 13 87.7 36.5 21.1 21.1 33.6 48.4 35.9 77.8l53.2 0.1c18.1 0 32.8 14.7 32.8 32.9l-0.2 159.8c0 8.7-3.5 17.1-9.7 23.2-6.1 6-14.4 9.5-23.1 9.5z m-321-66.1l288.1 0.3 0.1-94.1-56-0.1c-10.2 0-19.7-4.7-26-12.8-6.2-8-8.3-18.5-5.8-28.3 1.5-5.7 2.2-10.4 2.2-14.6 0-15.6-6-30.3-17.1-41.3-11.1-11.1-26.6-18-41.4-17.2-15.6 0-30.2 6.1-41.3 17.1-11.1 11-17.2 25.7-17.2 41.3 0 4.2 0.7 8.9 2.1 14.6 2.5 9.8 0.4 20.3-5.9 28.3-6.2 8-15.8 12.7-26 12.7l-56-0.1 0.2 94.2zM667.9 525H341.4c-17.5 0-31.7-14.2-31.7-31.7s14.2-31.7 31.7-31.7h326.5c17.5 0 31.7 14.2 31.7 31.7S685.4 525 667.9 525zM667.9 642.4H341.4c-17.5 0-31.7-14.2-31.7-31.7s14.2-31.7 31.7-31.7h326.5c17.5 0 31.7 14.2 31.7 31.7s-14.2 31.7-31.7 31.7zM667.9 759.8H341.4c-17.5 0-31.7-14.2-31.7-31.7s14.2-31.7 31.7-31.7h326.5c17.5 0 31.7 14.2 31.7 31.7s-14.2 31.7-31.7 31.7z" fill="#666666" p-id="6182"></path></svg>