<?xml version="1.0" standalone="no"?><!DOCTYPE svg PUBLIC "-//W3C//DTD SVG 1.1//EN" "http://www.w3.org/Graphics/SVG/1.1/DTD/svg11.dtd"><svg t="1645362595142" class="icon" viewBox="0 0 1024 1024" version="1.1" xmlns="http://www.w3.org/2000/svg" p-id="11551" xmlns:xlink="http://www.w3.org/1999/xlink" width="200" height="200"><defs><style type="text/css"></style></defs><path d="M430.72 721.92l-24.64-64.768L196.544 657.152l-24.64 66.112c-9.6 25.792-17.792 43.264-24.576 52.224-6.784 9.024-17.92 13.568-33.408 13.568-13.12 0-24.704-4.8-34.752-14.464C69.056 765.056 64 754.176 64 742.016c0-7.04 1.152-14.336 3.52-21.824s6.208-17.92 11.648-31.296l131.84-334.784c3.776-9.536 8.256-21.12 13.504-34.56C229.76 305.984 235.456 294.784 241.408 285.952c5.952-9.024 13.824-16.192 23.616-21.696C274.688 258.816 286.656 256 300.992 256 315.52 256 327.616 258.816 337.344 264.256c9.728 5.504 17.6 12.608 23.616 21.312 5.952 8.64 11.008 17.984 15.04 27.968s9.344 23.296 15.68 39.872l134.656 332.672c10.624 25.344 15.872 43.776 15.872 55.232 0 11.968-4.992 22.848-14.976 32.832-9.92 9.984-21.952 14.976-35.968 14.976-8.256 0-15.232-1.472-21.12-4.352-5.888-2.944-10.752-6.912-14.72-12.032s-8.256-12.8-12.864-23.232C438.016 739.136 434.048 729.92 430.72 721.92zM224 578.816l153.984 0L300.288 366.08 224 578.816zM854.848 734.912c-23.232 18.048-45.696 31.616-67.392 40.64-21.632 9.024-46.016 13.568-72.96 13.568-24.64 0-46.272-4.864-64.96-14.656-18.624-9.664-33.024-22.848-43.072-39.552-10.048-16.64-15.104-34.688-15.104-54.144 0-26.24 8.32-48.64 25.024-67.136 16.64-18.56 39.424-30.976 68.544-37.312 6.144-1.408 21.248-4.544 45.376-9.472s44.8-9.408 62.08-13.568c17.216-4.032 35.968-9.088 56.064-14.912C847.36 513.088 842.24 494.528 833.28 482.624c-9.088-11.84-27.776-17.664-56.128-17.664-24.384 0-42.752 3.392-54.976 10.112-12.288 6.784-22.848 17.024-31.68 30.656-8.832 13.568-14.912 22.592-18.624 26.88-3.648 4.352-11.456 6.528-23.36 6.528-10.816 0-20.096-3.456-27.968-10.368C612.608 521.792 608.704 512.96 608.704 502.144c0-16.896 6.016-33.28 17.92-49.216 12.032-15.936 30.656-29.056 55.872-39.36 25.344-10.304 56.896-15.488 94.656-15.488 42.24 0 75.392 4.992 99.52 14.912 24.192 9.984 41.28 25.728 51.2 47.296s14.912 50.176 14.912 85.824c0 22.528-0.064 41.6-0.128 57.344-0.128 15.68-0.384 33.152-0.576 52.416 0 17.984 2.944 36.8 8.96 56.384S960 744.448 960 750.08c0 9.792-4.608 18.816-13.888 26.944-9.28 8.064-19.776 12.096-31.488 12.096-9.856 0-19.584-4.672-29.184-13.888C875.84 765.952 865.6 752.512 854.848 734.912zM848.512 595.968c-14.08 5.184-34.496 10.688-61.376 16.384-26.816 5.76-45.376 9.984-55.744 12.672-10.24 2.688-20.096 8-29.504 15.808-9.344 7.872-14.08 18.816-14.08 32.896 0 14.528 5.504 26.944 16.576 37.12 11.008 10.176 25.344 15.296 43.264 15.296 19.008 0 36.48-4.16 52.48-12.48 16.128-8.32 27.904-19.072 35.392-32.192 8.704-14.528 12.992-38.464 12.992-71.68L848.512 595.968z" p-id="11552"></path></svg>